<svg id="Layer_1" data-name="Layer 1" xmlns="http://www.w3.org/2000/svg" width="300" height="300" viewBox="0 0 300 300"><title>Artboard 1 copy 11</title><path d="M187.7,181.49A19,19,0,0,1,173.39,163,18.76,18.76,0,0,1,192,144.26a18.53,18.53,0,0,1,18.61,18.52c0,8.79-6.11,16.81-14.31,18.75,15.43,2.1,27.33,17,27.33,32H160.37C160.37,198.5,172.27,183.59,187.7,181.49Z" fill="none" stroke="#000" stroke-miterlimit="10"/><path d="M103.7,181.49A19,19,0,0,1,89.39,163,18.76,18.76,0,0,1,108,144.26a18.53,18.53,0,0,1,18.61,18.52c0,8.79-6.11,16.81-14.31,18.75,15.43,2.1,27.33,17,27.33,32H76.37C76.37,198.5,88.27,183.59,103.7,181.49Z" fill="none" stroke="#000" stroke-miterlimit="10"/><polygon points="216.8 132.28 172.27 132.28 165.46 144.43 157.21 132.28 144.89 132.28 144.89 86.78 216.8 86.78 216.8 132.28" fill="none" stroke="#000" stroke-miterlimit="10"/><line x1="157" y1="102.5" x2="205" y2="102.5" fill="none" stroke="#000" stroke-miterlimit="10"/><line x1="157" y1="115.5" x2="205" y2="115.5" fill="none" stroke="#000" stroke-miterlimit="10"/><polygon points="108 139.24 127 139.24 129.9 144.43 133.42 139.24 138.67 139.24 138.67 119.84 108 119.84 108 139.24" fill="none" stroke="#000" stroke-miterlimit="10"/></svg>