<svg id="Layer_1" data-name="Layer 1" xmlns="http://www.w3.org/2000/svg" width="300" height="300" viewBox="0 0 300 300"><title>Artboard 1 copy 8</title><path d="M189.6,177.36a6.16,6.16,0,0,1,1.26,9.68h0c-8.86,8.86-10.49,19.72-19.45,19.45-14.93-.45-37.23-18.82-52-33.6-13.69-13.69-31.77-38.16-33.6-52-1.33-10.06,9.5-9.5,19.45-19.45h0a6.16,6.16,0,0,1,9.68,1.26l9.33,16a6.16,6.16,0,0,1-1,7.45l-2.67,2.67a6.16,6.16,0,0,0-1.18,7.05c2.9,6,8.73,17.1,14.28,22.65,5,5,15.68,11.45,21.56,14.82a6.15,6.15,0,0,0,7.41-1l3.4-3.4a6.16,6.16,0,0,1,7.45-1Z" fill="none" stroke="#000" stroke-miterlimit="10"/><polygon points="217.8 142.56 173.27 142.56 166.46 154.71 158.21 142.56 145.89 142.56 145.89 97.07 217.8 97.07 217.8 142.56" fill="none" stroke="#000" stroke-miterlimit="10"/><line x1="158" y1="112.5" x2="206" y2="112.5" fill="none" stroke="#000" stroke-miterlimit="10"/><line x1="158" y1="125.5" x2="206" y2="125.5" fill="none" stroke="#000" stroke-miterlimit="10"/></svg>