<svg id="Layer_1" data-name="Layer 1" xmlns="http://www.w3.org/2000/svg" width="300" height="300" viewBox="0 0 300 300"><title>Artboard 1 copy 9</title><path d="M177.7,145.63a18.92,18.92,0,0,1-14.31-18.37,18.61,18.61,0,1,1,37.22-.21c0,8.79-6.11,16.67-14.31,18.62,15.43,2.1,27.33,16.84,27.33,31.84H150.37C150.37,162.5,162.27,147.73,177.7,145.63Z" fill="none" stroke="#000" stroke-miterlimit="10"/><path d="M113.7,145.63a18.92,18.92,0,0,1-14.31-18.37,18.61,18.61,0,1,1,37.22-.21c0,8.79-6.11,16.67-14.31,18.62,15.43,2.1,27.33,16.84,27.33,31.84H86.37C86.37,162.5,98.27,147.73,113.7,145.63Z" fill="none" stroke="#000" stroke-miterlimit="10"/><path d="M145.7,159.63a18.92,18.92,0,0,1-14.31-18.37,18.61,18.61,0,1,1,37.22-.21c0,8.79-6.11,16.67-14.31,18.62,15.43,2.1,27.33,16.84,27.33,31.84H118.37C118.37,176.5,130.27,161.73,145.7,159.63Z" fill="none" stroke="#000" stroke-miterlimit="10"/></svg>