<svg id="Layer_1" data-name="Layer 1" xmlns="http://www.w3.org/2000/svg" width="300" height="300" viewBox="0 0 300 300"><title>Artboard 1 copy 2</title><path d="M61.2,185.44v-46.3a14.57,14.57,0,0,1,14.57-14.57H224.23a14.57,14.57,0,0,1,14.57,14.57v46.3a4,4,0,0,1-4,4H65.2A4,4,0,0,1,61.2,185.44Z" fill="none" stroke="#000" stroke-miterlimit="10"/><path d="M96.85,215.26V175.73a10.36,10.36,0,0,1,10.36-10.36h85.57a10.36,10.36,0,0,1,10.36,10.36v39.53Z" fill="none" stroke="#000" stroke-miterlimit="10"/><path d="M96.85,124.56V95a10.36,10.36,0,0,1,10.36-10.36h85.57A10.36,10.36,0,0,1,203.15,95v29.53Z" fill="none" stroke="#000" stroke-miterlimit="10"/><line x1="75" y1="138.5" x2="97" y2="138.5" fill="none" stroke="#000" stroke-miterlimit="10"/></svg>