<svg id="Layer_1" data-name="Layer 1" xmlns="http://www.w3.org/2000/svg" width="300" height="300" viewBox="0 0 300 300"><title>Artboard 1 copy 10</title><path d="M76.24,96.51h33a39.93,39.93,0,0,1,39.93,39.93v0a0,0,0,0,1,0,0H76.24a0,0,0,0,1,0,0V96.51A0,0,0,0,1,76.24,96.51Z" transform="translate(-49.35 113.79) rotate(-45)" fill="none" stroke="#000" stroke-miterlimit="10"/><rect x="159.42" y="113.89" width="18.04" height="120.44" transform="translate(-73.78 170.1) rotate(-45)" fill="none" stroke="#000" stroke-miterlimit="10"/><polygon points="123.04 218.98 129 195.35 126.62 192.96 179.89 139.69 182.37 142.16 205.85 136.04 211.96 112.56 211.64 112.24 194.42 129.46 177.2 112.24 194.69 94.75 171.16 101.09 165 124.79 167.52 127.31 114.24 180.58 111.64 177.98 88.15 184.09 82.04 207.58 82.49 208.03 99.71 190.81 116.93 208.03 99.71 225.25 123.04 218.98" fill="none" stroke="#000" stroke-miterlimit="10"/></svg>