<svg id="Layer_1" data-name="Layer 1" xmlns="http://www.w3.org/2000/svg" width="300" height="300" viewBox="0 0 300 300"><title>Artboard 1 copy 4</title><path d="M98.34,151.57a13,13,0,0,0-3-25.61,12.88,12.88,0,0,0-12.91,12.88,13.13,13.13,0,0,0,9.93,12.74,22.21,22.21,0,0,0-19,21.91H117.3A22.22,22.22,0,0,0,98.34,151.57Z" fill="none" stroke="#000" stroke-miterlimit="10"/><path d="M71.42,186.49a13,13,0,0,0-3-25.67,12.88,12.88,0,0,0-12.91,12.87,13.21,13.21,0,0,0,9.93,12.82,22.28,22.28,0,0,0-19,22H90.38A22.3,22.3,0,0,0,71.42,186.49Z" fill="none" stroke="#000" stroke-miterlimit="10"/><path d="M201.66,151.57a13,13,0,0,1,3-25.61,12.88,12.88,0,0,1,12.91,12.88,13.13,13.13,0,0,1-9.93,12.74,22.21,22.21,0,0,1,19,21.91H182.7A22.22,22.22,0,0,1,201.66,151.57Z" fill="none" stroke="#000" stroke-miterlimit="10"/><path d="M228.58,186.49a13,13,0,0,1,3-25.67,12.88,12.88,0,0,1,12.91,12.87,13.21,13.21,0,0,1-9.93,12.82,22.28,22.28,0,0,1,19,22H209.62A22.3,22.3,0,0,1,228.58,186.49Z" fill="none" stroke="#000" stroke-miterlimit="10"/><polygon points="217.31 215.81 82.46 215.81 114.13 148.97 185.63 148.97 217.31 215.81" fill="none" stroke="#000" stroke-miterlimit="10"/><rect x="113.92" y="84.2" width="72.15" height="45.43" fill="none" stroke="#000" stroke-miterlimit="10"/><path d="M147.77,113.1A9.72,9.72,0,0,1,150,93.93a9.64,9.64,0,0,1,9.66,9.64,9.82,9.82,0,0,1-7.43,9.53,16.8,16.8,0,0,1,14.19,16.39H133.58A16.81,16.81,0,0,1,147.77,113.1Z" fill="none" stroke="#000" stroke-miterlimit="10"/><line x1="169" y1="91.5" x2="179" y2="91.5" fill="none" stroke="#000" stroke-miterlimit="10"/></svg>